<?xml version="1.0" encoding="UTF-8" standalone="no"?>
<!DOCTYPE svg PUBLIC "-//W3C//DTD SVG 1.1//EN"
 "http://www.w3.org/Graphics/SVG/1.1/DTD/svg11.dtd">
<!-- Generated by graphviz version 2.38.0 (20140413.2041)
 -->
<!-- Title: G Pages: 1 -->
<svg width="445pt" height="858pt"
 viewBox="0.00 0.00 444.70 858.00" xmlns="http://www.w3.org/2000/svg" xmlns:xlink="http://www.w3.org/1999/xlink">
<g id="graph0" class="graph" transform="scale(1 1) rotate(0) translate(4 854)">
<title>G</title>
<polygon fill="white" stroke="none" points="-4,4 -4,-854 440.696,-854 440.696,4 -4,4"/>
<g id="clust1" class="cluster"><title>cluster_Global</title>
<path fill="none" stroke="gray" d="M20,-44C20,-44 416.696,-44 416.696,-44 422.696,-44 428.696,-50 428.696,-56 428.696,-56 428.696,-830 428.696,-830 428.696,-836 422.696,-842 416.696,-842 416.696,-842 20,-842 20,-842 14,-842 8,-836 8,-830 8,-830 8,-56 8,-56 8,-50 14,-44 20,-44"/>
<text text-anchor="middle" x="218.348" y="-829.2" font-family="Times,serif" font-size="11.00" fill="gray">Global</text>
</g>
<g id="clust2" class="cluster"><title>cluster_\agilman</title>
<path fill="none" stroke="gray" d="M28,-52C28,-52 408.696,-52 408.696,-52 414.696,-52 420.696,-58 420.696,-64 420.696,-64 420.696,-802 420.696,-802 420.696,-808 414.696,-814 408.696,-814 408.696,-814 28,-814 28,-814 22,-814 16,-808 16,-802 16,-802 16,-64 16,-64 16,-58 22,-52 28,-52"/>
<text text-anchor="middle" x="218.348" y="-801.2" font-family="Times,serif" font-size="11.00" fill="gray">agilman</text>
</g>
<g id="clust3" class="cluster"><title>cluster_\agilman\a2</title>
<path fill="none" stroke="gray" d="M36,-60C36,-60 400.696,-60 400.696,-60 406.696,-60 412.696,-66 412.696,-72 412.696,-72 412.696,-774 412.696,-774 412.696,-780 406.696,-786 400.696,-786 400.696,-786 36,-786 36,-786 30,-786 24,-780 24,-774 24,-774 24,-72 24,-72 24,-66 30,-60 36,-60"/>
<text text-anchor="middle" x="218.348" y="-773.2" font-family="Times,serif" font-size="11.00" fill="gray">a2</text>
</g>
<g id="clust4" class="cluster"><title>cluster_\agilman\a2\controller</title>
<path fill="none" stroke="gray" d="M44,-578C44,-578 375.696,-578 375.696,-578 381.696,-578 387.696,-584 387.696,-590 387.696,-590 387.696,-746 387.696,-746 387.696,-752 381.696,-758 375.696,-758 375.696,-758 44,-758 44,-758 38,-758 32,-752 32,-746 32,-746 32,-590 32,-590 32,-584 38,-578 44,-578"/>
<text text-anchor="middle" x="209.848" y="-745.2" font-family="Times,serif" font-size="11.00" fill="gray">controller</text>
</g>
<g id="clust5" class="cluster"><title>cluster_\agilman\a2\exception</title>
<path fill="none" stroke="gray" d="M232.196,-148C232.196,-148 369.196,-148 369.196,-148 375.196,-148 381.196,-154 381.196,-160 381.196,-160 381.196,-208 381.196,-208 381.196,-214 375.196,-220 369.196,-220 369.196,-220 232.196,-220 232.196,-220 226.196,-220 220.196,-214 220.196,-208 220.196,-208 220.196,-160 220.196,-160 220.196,-154 226.196,-148 232.196,-148"/>
<text text-anchor="middle" x="300.696" y="-207.2" font-family="Times,serif" font-size="11.00" fill="gray">exception</text>
</g>
<g id="clust6" class="cluster"><title>cluster_\agilman\a2\model</title>
<path fill="none" stroke="gray" d="M59,-228C59,-228 392.696,-228 392.696,-228 398.696,-228 404.696,-234 404.696,-240 404.696,-240 404.696,-558 404.696,-558 404.696,-564 398.696,-570 392.696,-570 392.696,-570 59,-570 59,-570 53,-570 47,-564 47,-558 47,-558 47,-240 47,-240 47,-234 53,-228 59,-228"/>
<text text-anchor="middle" x="225.848" y="-557.2" font-family="Times,serif" font-size="11.00" fill="gray">model</text>
</g>
<g id="clust7" class="cluster"><title>cluster_\agilman\a2\view</title>
<path fill="none" stroke="gray" d="M277.696,-68C277.696,-68 323.696,-68 323.696,-68 329.696,-68 335.696,-74 335.696,-80 335.696,-80 335.696,-128 335.696,-128 335.696,-134 329.696,-140 323.696,-140 323.696,-140 277.696,-140 277.696,-140 271.696,-140 265.696,-134 265.696,-128 265.696,-128 265.696,-80 265.696,-80 265.696,-74 271.696,-68 277.696,-68"/>
<text text-anchor="middle" x="300.696" y="-127.2" font-family="Times,serif" font-size="11.00" fill="gray">view</text>
</g>
<!-- \\agilman\\a2\\controller\\BankAccountController -->
<g id="node1" class="node"><title>\\agilman\\a2\\controller\\BankAccountController</title>
<polygon fill="none" stroke="black" points="379.696,-730 221.696,-730 221.696,-694 379.696,-694 379.696,-730"/>
<text text-anchor="middle" x="300.696" y="-709.2" font-family="Courier,monospace" font-size="11.00">BankAccountController</text>
</g>
<!-- \\agilman\\a2\\controller\\Controller -->
<g id="node2" class="node"><title>\\agilman\\a2\\controller\\Controller</title>
<polygon fill="none" stroke="black" points="124,-676 40,-676 40,-640 124,-640 124,-676"/>
<text text-anchor="middle" x="82" y="-655.2" font-family="Courier,monospace" font-size="11.00">Controller</text>
</g>
<!-- \\agilman\\a2\\controller\\BankAccountController&#45;&gt;\\agilman\\a2\\controller\\Controller -->
<g id="edge1" class="edge"><title>\\agilman\\a2\\controller\\BankAccountController&#45;&gt;\\agilman\\a2\\controller\\Controller</title>
<path fill="none" stroke="black" d="M227.238,-693.944C196.665,-686.325 161.794,-677.635 133.998,-670.709"/>
<polygon fill="none" stroke="black" points="134.648,-667.264 124.099,-668.242 132.956,-674.056 134.648,-667.264"/>
</g>
<!-- \\agilman\\a2\\controller\\LoginController -->
<g id="node3" class="node"><title>\\agilman\\a2\\controller\\LoginController</title>
<polygon fill="none" stroke="black" points="359.696,-676 241.696,-676 241.696,-640 359.696,-640 359.696,-676"/>
<text text-anchor="middle" x="300.696" y="-655.2" font-family="Courier,monospace" font-size="11.00">LoginController</text>
</g>
<!-- \\agilman\\a2\\controller\\LoginController&#45;&gt;\\agilman\\a2\\controller\\Controller -->
<g id="edge2" class="edge"><title>\\agilman\\a2\\controller\\LoginController&#45;&gt;\\agilman\\a2\\controller\\Controller</title>
<path fill="none" stroke="black" d="M241.625,-658C208.14,-658 166.424,-658 134.176,-658"/>
<polygon fill="none" stroke="black" points="134.061,-654.5 124.061,-658 134.061,-661.5 134.061,-654.5"/>
</g>
<!-- \\agilman\\a2\\controller\\TransactionController -->
<g id="node4" class="node"><title>\\agilman\\a2\\controller\\TransactionController</title>
<polygon fill="none" stroke="black" points="379.696,-622 221.696,-622 221.696,-586 379.696,-586 379.696,-622"/>
<text text-anchor="middle" x="300.696" y="-601.2" font-family="Courier,monospace" font-size="11.00">TransactionController</text>
</g>
<!-- \\agilman\\a2\\controller\\TransactionController&#45;&gt;\\agilman\\a2\\controller\\Controller -->
<g id="edge3" class="edge"><title>\\agilman\\a2\\controller\\TransactionController&#45;&gt;\\agilman\\a2\\controller\\Controller</title>
<path fill="none" stroke="black" d="M227.238,-622.056C196.665,-629.675 161.794,-638.365 133.998,-645.291"/>
<polygon fill="none" stroke="black" points="132.956,-641.944 124.099,-647.758 134.648,-648.736 132.956,-641.944"/>
</g>
<!-- \\agilman\\a2\\exception\\EmptyFieldException -->
<g id="node5" class="node"><title>\\agilman\\a2\\exception\\EmptyFieldException</title>
<polygon fill="none" stroke="black" points="373.196,-192 228.196,-192 228.196,-156 373.196,-156 373.196,-192"/>
<text text-anchor="middle" x="300.696" y="-171.2" font-family="Courier,monospace" font-size="11.00">EmptyFieldException</text>
</g>
<!-- \\Exception -->
<g id="node14" class="node"><title>\\Exception</title>
<ellipse fill="none" stroke="black" cx="82" cy="-18" rx="50.8918" ry="18"/>
<text text-anchor="middle" x="82" y="-14.3" font-family="Times,serif" font-size="14.00" fill="gray">xception</text>
</g>
<!-- \\agilman\\a2\\exception\\EmptyFieldException&#45;&gt;\\Exception -->
<g id="edge4" class="edge"><title>\\agilman\\a2\\exception\\EmptyFieldException&#45;&gt;\\Exception</title>
<path fill="none" stroke="black" d="M228.435,-155.829C220.153,-152.47 212.048,-148.552 204.696,-144 161.812,-117.452 123.417,-72.4211 101.693,-43.9967"/>
<polygon fill="none" stroke="black" points="104.303,-41.643 95.4997,-35.7473 98.7047,-45.8458 104.303,-41.643"/>
</g>
<!-- \\agilman\\a2\\model\\AccountModel -->
<g id="node6" class="node"><title>\\agilman\\a2\\model\\AccountModel</title>
<polygon fill="none" stroke="black" points="349.696,-542 251.696,-542 251.696,-506 349.696,-506 349.696,-542"/>
<text text-anchor="middle" x="300.696" y="-521.2" font-family="Courier,monospace" font-size="11.00">AccountModel</text>
</g>
<!-- \\agilman\\a2\\model\\Model -->
<g id="node10" class="node"><title>\\agilman\\a2\\model\\Model</title>
<polygon fill="none" stroke="black" points="109,-407 55,-407 55,-371 109,-371 109,-407"/>
<text text-anchor="middle" x="82" y="-386.2" font-family="Courier,monospace" font-size="11.00">Model</text>
</g>
<!-- \\agilman\\a2\\model\\AccountModel&#45;&gt;\\agilman\\a2\\model\\Model -->
<g id="edge5" class="edge"><title>\\agilman\\a2\\model\\AccountModel&#45;&gt;\\agilman\\a2\\model\\Model</title>
<path fill="none" stroke="black" d="M251.669,-514.814C236.098,-510.686 219.13,-504.911 204.696,-497 165.356,-475.438 127.991,-439.065 105.291,-414.555"/>
<polygon fill="none" stroke="black" points="107.774,-412.084 98.4526,-407.048 102.6,-416.798 107.774,-412.084"/>
</g>
<!-- \\agilman\\a2\\model\\BankAccountCollectionModel -->
<g id="node7" class="node"><title>\\agilman\\a2\\model\\BankAccountCollectionModel</title>
<polygon fill="none" stroke="black" points="396.696,-488 204.696,-488 204.696,-452 396.696,-452 396.696,-488"/>
<text text-anchor="middle" x="300.696" y="-467.2" font-family="Courier,monospace" font-size="11.00">BankAccountCollectionModel</text>
</g>
<!-- \\agilman\\a2\\model\\BankAccountCollectionModel&#45;&gt;\\agilman\\a2\\model\\Model -->
<g id="edge6" class="edge"><title>\\agilman\\a2\\model\\BankAccountCollectionModel&#45;&gt;\\agilman\\a2\\model\\Model</title>
<path fill="none" stroke="black" d="M231.855,-451.983C222.662,-449.174 213.402,-446.151 204.696,-443 174.955,-432.236 142.239,-417.551 118.225,-406.212"/>
<polygon fill="none" stroke="black" points="119.683,-403.029 109.149,-401.89 116.673,-409.349 119.683,-403.029"/>
</g>
<!-- \\agilman\\a2\\model\\BankAccountModel -->
<g id="node8" class="node"><title>\\agilman\\a2\\model\\BankAccountModel</title>
<polygon fill="none" stroke="black" points="363.196,-434 238.196,-434 238.196,-398 363.196,-398 363.196,-434"/>
<text text-anchor="middle" x="300.696" y="-413.2" font-family="Courier,monospace" font-size="11.00">BankAccountModel</text>
</g>
<!-- \\agilman\\a2\\model\\BankAccountModel&#45;&gt;\\agilman\\a2\\model\\Model -->
<g id="edge7" class="edge"><title>\\agilman\\a2\\model\\BankAccountModel&#45;&gt;\\agilman\\a2\\model\\Model</title>
<path fill="none" stroke="black" d="M238.179,-408.335C199.678,-403.538 151.407,-397.523 119.015,-393.487"/>
<polygon fill="none" stroke="black" points="119.444,-390.014 109.088,-392.251 118.579,-396.96 119.444,-390.014"/>
</g>
<!-- \\agilman\\a2\\model\\LoginModel -->
<g id="node9" class="node"><title>\\agilman\\a2\\model\\LoginModel</title>
<polygon fill="none" stroke="black" points="342.696,-380 258.696,-380 258.696,-344 342.696,-344 342.696,-380"/>
<text text-anchor="middle" x="300.696" y="-359.2" font-family="Courier,monospace" font-size="11.00">LoginModel</text>
</g>
<!-- \\agilman\\a2\\model\\LoginModel&#45;&gt;\\agilman\\a2\\model\\Model -->
<g id="edge8" class="edge"><title>\\agilman\\a2\\model\\LoginModel&#45;&gt;\\agilman\\a2\\model\\Model</title>
<path fill="none" stroke="black" d="M258.682,-367.11C218.53,-372.113 157.939,-379.663 119.437,-384.46"/>
<polygon fill="none" stroke="black" points="118.689,-381.026 109.198,-385.736 119.554,-387.972 118.689,-381.026"/>
</g>
<!-- \\agilman\\a2\\model\\TransactionCollectionModel -->
<g id="node11" class="node"><title>\\agilman\\a2\\model\\TransactionCollectionModel</title>
<polygon fill="none" stroke="black" points="396.696,-326 204.696,-326 204.696,-290 396.696,-290 396.696,-326"/>
<text text-anchor="middle" x="300.696" y="-305.2" font-family="Courier,monospace" font-size="11.00">TransactionCollectionModel</text>
</g>
<!-- \\agilman\\a2\\model\\TransactionCollectionModel&#45;&gt;\\agilman\\a2\\model\\Model -->
<g id="edge9" class="edge"><title>\\agilman\\a2\\model\\TransactionCollectionModel&#45;&gt;\\agilman\\a2\\model\\Model</title>
<path fill="none" stroke="black" d="M231.855,-326.017C222.662,-328.826 213.402,-331.849 204.696,-335 174.955,-345.764 142.239,-360.449 118.225,-371.788"/>
<polygon fill="none" stroke="black" points="116.673,-368.651 109.149,-376.11 119.683,-374.971 116.673,-368.651"/>
</g>
<!-- \\agilman\\a2\\model\\TransactionModel -->
<g id="node12" class="node"><title>\\agilman\\a2\\model\\TransactionModel</title>
<polygon fill="none" stroke="black" points="363.196,-272 238.196,-272 238.196,-236 363.196,-236 363.196,-272"/>
<text text-anchor="middle" x="300.696" y="-251.2" font-family="Courier,monospace" font-size="11.00">TransactionModel</text>
</g>
<!-- \\agilman\\a2\\model\\TransactionModel&#45;&gt;\\agilman\\a2\\model\\Model -->
<g id="edge10" class="edge"><title>\\agilman\\a2\\model\\TransactionModel&#45;&gt;\\agilman\\a2\\model\\Model</title>
<path fill="none" stroke="black" d="M238.036,-267.15C226.585,-270.798 214.995,-275.355 204.696,-281 165.356,-302.562 127.991,-338.935 105.291,-363.445"/>
<polygon fill="none" stroke="black" points="102.6,-361.202 98.4526,-370.952 107.774,-365.916 102.6,-361.202"/>
</g>
<!-- \\agilman\\a2\\view\\View -->
<g id="node13" class="node"><title>\\agilman\\a2\\view\\View</title>
<polygon fill="none" stroke="black" points="327.696,-112 273.696,-112 273.696,-76 327.696,-76 327.696,-112"/>
<text text-anchor="middle" x="300.696" y="-91.2" font-family="Courier,monospace" font-size="11.00">View</text>
</g>
</g>
</svg>
